<svg xmlns="http://www.w3.org/2000/svg" viewBox="0 0 512 512">
  <rect width="512" height="512" fill="#4a90e2"/>
  <g fill="#ffffff" stroke="#2c5a8e" stroke-width="6">
    <rect x="80"  y="80"  width="88" height="88"/>
    <rect x="168" y="80"  width="88" height="88"/>
    <rect x="256" y="80"  width="88" height="88" fill="#2c5a8e"/>
    <rect x="344" y="80"  width="88" height="88"/>
    <rect x="80"  y="168" width="88" height="88" fill="#2c5a8e"/>
    <rect x="168" y="168" width="88" height="88"/>
    <rect x="256" y="168" width="88" height="88"/>
    <rect x="344" y="168" width="88" height="88" fill="#2c5a8e"/>
    <rect x="80"  y="256" width="88" height="88"/>
    <rect x="168" y="256" width="88" height="88"/>
    <rect x="256" y="256" width="88" height="88"/>
    <rect x="344" y="256" width="88" height="88"/>
    <rect x="80"  y="344" width="88" height="88" fill="#2c5a8e"/>
    <rect x="168" y="344" width="88" height="88"/>
    <rect x="256" y="344" width="88" height="88" fill="#2c5a8e"/>
    <rect x="344" y="344" width="88" height="88"/>
  </g>
  <g font-family="'Hiragino Sans','Noto Sans JP',sans-serif" font-weight="700" text-anchor="middle" fill="#2c5a8e">
    <text x="124" y="150" font-size="72">あ</text>
    <text x="212" y="150" font-size="72">い</text>
    <text x="388" y="150" font-size="72">う</text>
    <text x="212" y="238" font-size="72">え</text>
    <text x="300" y="238" font-size="72">お</text>
    <text x="124" y="326" font-size="72">か</text>
    <text x="212" y="326" font-size="72">き</text>
    <text x="300" y="326" font-size="72">く</text>
    <text x="388" y="326" font-size="72">け</text>
    <text x="212" y="414" font-size="72">さ</text>
    <text x="388" y="414" font-size="72">し</text>
  </g>
</svg>
